<?xml version="1.0" encoding="UTF-8" standalone="no"?>
<!DOCTYPE svg PUBLIC "-//W3C//DTD SVG 1.1//EN" "http://www.w3.org/Graphics/SVG/1.1/DTD/svg11.dtd">
<svg width="100%" height="100%" viewBox="0 0 2614 930" version="1.1" xmlns="http://www.w3.org/2000/svg" xmlns:xlink="http://www.w3.org/1999/xlink" xml:space="preserve" xmlns:serif="http://www.serif.com/" style="fill-rule:evenodd;clip-rule:evenodd;stroke-linecap:round;">
    <g transform="matrix(1,0,0,1,-446.985296,-775.319886)">
        <g>
            <g transform="matrix(2.35838,0,0,2.495367,457.853313,786.844754)">
                <path d="M32,0C432.73,-0.07 833.88,-1.33 1066.92,0M32,0C284.18,0.87 536,0.9 1066.92,0M1066.92,0C1088.13,0.52 1100.82,8.96 1098.92,32M1066.92,0C1089.47,-0.41 1097.2,12.81 1098.92,32M1098.92,32C1099.64,99.16 1099.73,168.72 1098.92,331.78M1098.92,32C1098.68,127.09 1098.66,222.44 1098.92,331.78M1098.92,331.78C1099.71,351.92 1086.99,363.95 1066.92,363.78M1098.92,331.78C1100.19,352.03 1086.65,363.37 1066.92,363.78M1066.92,363.78C794.92,360.75 523.21,361.9 32,363.78M1066.92,363.78C700.89,359.71 334.72,359.55 32,363.78M32,363.78C10.73,365.34 -1.56,354.78 0,331.78M32,363.78C8.99,361.53 0.02,353.53 0,331.78M0,331.78C-1.23,211.85 1.15,92.5 0,32M0,331.78C-0.27,228.46 -0.15,124.58 0,32M0,32C-0.78,10.88 9.04,-0.68 32,0M0,32C-0.35,9.64 9.7,1.58 32,0" style="fill:none;fill-rule:nonzero;stroke:rgb(30,30,30);stroke-width:2px;"/>
            </g>
            <g transform="matrix(2.282227,0,0,2.282227,585.566929,863.566929)">
                <path d="M316.451,183.77C311.883,182.991 311.916,182.904 307.607,181.226C302.278,179.151 297.294,175.524 296.321,174.718C292.174,171.283 291.718,169.961 289.523,167.48C284.476,161.777 279.543,150.883 279.126,140.519C278.373,121.824 282.765,116.072 284.077,113.31C284.693,112.01 288.563,103.859 294.817,98.891C299.677,95.031 302.588,93.514 303.316,93.135C309.352,89.989 310.375,89.401 316.591,87.996C320.212,87.177 333.827,87.373 336.486,87.632C345.845,88.544 356.219,95.767 359.76,99.232C362.665,102.073 364.934,103.393 363.308,105.33C363.144,105.524 357.258,111.225 356.73,111.736C351.996,116.321 351.516,117.567 349.494,116.508C349.433,116.476 345.338,112.221 342.18,109.949C339.026,107.681 333.662,106.38 331.525,106.208C319.175,105.215 313.529,109.474 310.389,112.377C305.523,116.876 303.373,120.734 301.475,126.49C299.793,131.59 300.793,142.034 300.868,142.444C303.195,155.08 312.318,160.333 315.596,162.348C321.636,166.061 332.23,165.801 337.569,163.658C339.555,162.861 344.918,159.138 347.163,157.129C348.968,155.513 349.584,153.9 350.571,153.754C352.187,153.515 354.552,156.3 359.878,162.156C361.596,164.046 363.737,165.541 363.884,166.409C364.217,168.388 359.546,173.372 358.405,174.397C354.368,178.022 344.618,182.973 339.541,183.728C335.466,184.333 335.579,184.942 331.478,185.132C322.437,185.551 319.849,184.451 316.451,183.77Z" style="fill:rgb(11,13,13);"/>
                <path d="M90.111,204.825C89.96,204.665 89.709,204.622 89.557,204.462C87.126,201.886 91.555,198.888 90.014,193.624C89.016,190.216 86.967,190.897 82.426,187.593C80.583,186.251 78.818,183.598 78.668,183.387C75.146,178.401 75.204,177.101 75.232,176.485C75.331,174.296 77.692,173.242 73.215,169.872C72.629,169.431 72.015,169.029 71.424,168.595C69.126,166.906 70.75,164.347 68.46,163.617C66.92,163.126 65.22,163.587 60.599,161.298C57.711,159.866 52.791,156.988 49.483,157.325C47.501,157.527 47.441,158.075 45.621,157.252C44.097,156.562 44.036,154.63 41.386,152.658C41.197,152.517 39.52,151.269 39.318,150.565C38.74,148.542 40.751,147.82 40.755,147.819C41.34,147.681 41.949,147.682 42.539,147.57C43.447,147.398 43.686,147.429 43.675,146.495C43.663,145.572 43.41,145.623 42.513,145.474C41.893,145.371 41.26,145.359 40.64,145.257C37.636,144.765 34.044,136.636 46.439,134.22C52.982,132.945 53.373,134.113 56.74,131.853C59.133,130.248 64.482,129.358 67.512,133.49C68.959,135.465 69.955,136.974 71.52,136.587C72.233,136.412 72.888,136.049 73.589,135.829C74.762,135.462 76.395,135.57 81.469,135.91C83.522,136.048 84.188,136.41 84.768,135.936C86.111,134.841 85.292,134.496 84.846,129.467C84.383,124.228 81.735,123.494 80.494,115.501C79.761,110.775 84.625,112.787 87.508,112.632C92.173,112.382 93.805,112.491 94.359,116.516C94.866,120.205 96.952,119.86 101.381,120.955C101.458,120.974 106.525,122.648 109.308,121.154C111.956,119.733 108.078,116.506 114.235,112.103C120.569,107.575 130.767,108.838 131.474,98.498C132.05,90.064 131.266,88.935 136.319,86.142C136.835,85.857 145.874,82.323 148.259,83.848C149.716,84.78 150.423,89.072 151.388,89.635C153.855,91.077 154.482,88.679 157.469,90.541C158.943,91.46 159.568,94.466 161.808,96.073C165.237,98.533 167.812,99.593 168.372,99.823C174.761,102.451 171.438,105.876 173.592,107.378C176.091,109.121 178.238,103.924 180.515,103.841C184.328,103.703 181.102,109.34 184.852,112.002C185.231,112.271 185.269,112.2 189.686,115.229C193.563,117.888 202.941,116.469 206.377,119.631C208.642,121.714 207.841,123.504 214.528,124.151C216.055,124.299 217.925,123.814 220.421,124.712C228.133,127.485 233.644,126.563 230.291,133.399C228.215,137.63 226.982,137.452 225.719,143.548C224.668,148.621 224.001,148.515 223.873,154.509C223.762,159.649 224.218,163.333 218.456,164.168C216.667,164.427 216.127,164.144 215.406,166.471C214.318,169.978 210.738,173.692 210.22,174.229C206.982,177.588 207.921,178.256 204.978,181.892C202.374,185.109 201.471,189.853 201.822,190.305C201.938,190.454 202.944,190.568 203.333,190.281C203.982,189.802 204.01,185.879 209.508,185.646C213.369,185.482 212.563,188 215.99,194.237C218.483,198.776 215.132,199.11 215.424,201.513C215.594,202.914 221.356,208.322 218.179,213.295C216.792,215.466 213.216,215.93 213.235,217.507C213.254,219.064 217.285,219.677 215.101,224.269C214.623,225.273 214.627,225.529 213.522,225.415C212.575,225.317 212.869,224.425 211.267,222.741C209.317,220.692 208.895,220.988 207.822,218.365C205.305,212.207 214.128,212.6 214.147,209.504C214.166,206.479 208.213,203.549 210.377,198.444C211.211,196.478 211.502,196.398 210.684,194.417C210.084,192.962 209.541,191.25 208.501,191.252C207.006,191.254 206.324,195.185 201.443,196.186C198.318,196.827 195.428,194.708 196.359,191.461C197.229,188.422 197.549,188.526 198.179,185.439C199.239,180.247 200.534,180.821 203.239,175.374C204.596,172.641 206.088,171.805 207.145,170.256C209.739,166.456 209.847,166.045 209.958,165.626C210.217,164.645 210.256,159.71 215.497,159.419C217.513,159.307 218.728,159.71 218.885,156.528C219.312,147.896 219.554,147.925 221.82,139.584C223.495,133.42 226.329,132.927 224.701,131.311C224.14,130.755 222.181,130.513 220.637,130.069C217.169,129.071 217.137,129.335 213.53,129.1C203.746,128.461 205.282,122.977 200.495,122.557C195.979,122.162 196.021,121.973 191.549,121.233C189.337,120.867 189.366,120.711 182.6,116.341C178.851,113.919 179.582,112.075 176.498,112.487C172.775,112.986 168.923,113.334 168.041,107.564C167.59,104.611 167.309,104.47 164.517,103.454C161.229,102.257 157.518,98.902 156.939,98.135C155.529,96.267 155.827,95.665 153.51,95.383C149.801,94.932 148.748,95.061 145.956,90.229C145.081,88.716 144.32,88.167 139.691,89.949C135.332,91.627 137.2,93.176 136.046,101.437C134.945,109.321 125.832,112.414 124.609,112.829C123.93,113.06 116.587,115.552 116.413,116.458C116.181,117.671 116.634,117.567 117.688,118.237C118.407,118.694 118.595,118.516 118.915,119.321C119.975,121.987 115.059,123.728 112.677,124.868C106.33,127.905 106,126.388 95.469,124.694C88.678,123.601 91.593,116.758 87.496,117.486C85.522,117.837 86.602,120.198 86.704,120.419C88.916,125.252 89.252,125.192 89.648,130.488C90.009,135.332 92.807,137.57 90.83,139.775C88.048,142.881 77.686,139.45 73.64,140.91C70.807,141.933 69.203,143.707 65.517,138.486C62.789,134.621 59.854,136.042 59.385,136.269C57.024,137.413 57.141,137.876 52.483,138.296C43.527,139.104 43.422,139.749 43.404,140.496C43.358,142.429 47.472,140.41 49.165,144.638C50.898,148.967 46.074,150.275 48.178,151.9C49.025,152.555 51.173,151.257 56.376,153.755C61.726,156.323 62.007,157.79 67.354,155.195C68.724,154.53 76.631,150.693 85.482,149.38C90.06,148.701 98.902,149.093 104.35,152.731C116.946,161.144 114.892,174.746 122.697,179.16C127.419,181.831 131.825,177.587 133.02,176.091C136.852,171.292 137.381,168.931 140.511,165.51C148.133,157.183 159.488,160.591 162.975,170.338C164.79,175.41 164.727,175.408 166.43,180.524C169.95,191.097 178.914,191.316 185.691,195.151C189.491,197.302 189.433,197.409 192.4,200.593C196.384,204.869 197.084,211.17 197.384,213.514C197.423,213.817 197.773,216.548 196.342,217.19C193.907,218.283 193.125,215.958 193.032,215.682C192.006,212.628 193.293,202.237 177.421,196.727C169.452,193.961 164.251,190.86 160.266,177.573C157.519,168.414 155.232,166.909 152.598,166.169C146.289,164.395 143.178,170.527 141.164,173.259C138.612,176.721 132.071,189.295 120.473,183.552C112.885,179.794 110.884,167.771 107.369,162.585C97.176,147.545 77.585,156.483 74.498,157.495C74.273,157.569 71.911,158.343 71.786,158.673C71.709,158.875 71.864,159.112 71.987,159.291C72.078,159.423 72.284,159.434 72.392,159.554C72.552,159.732 72.591,160.008 72.773,160.165C72.794,160.183 73.74,160.52 74.402,161.552C75.211,162.813 74.16,165.274 77.544,164.864C78.661,164.729 80.106,164.28 82.601,165.254C87.443,167.144 85.612,171.445 83.48,170.656C82.769,170.393 82.227,169.757 81.503,169.531C81.339,169.48 80.574,170.074 80.549,170.508C80.53,170.834 80.664,171.152 80.763,171.463C81.233,172.941 81.475,172.925 81.18,174.431C80.72,176.781 80.224,177.01 82.439,180.542C86.538,187.078 93.128,184.968 94.53,191.493C95.665,196.774 95.418,197.072 94.803,199.578C93.805,203.644 97.187,203.15 99.574,209.47C103.332,219.421 102.072,220.699 101.395,221.385C100.966,221.821 98.631,224.189 95.521,216.488C95.432,216.267 94.458,213.855 94.291,213.78C94.073,213.681 93.825,213.904 93.586,213.908C93.368,213.913 93.108,213.669 92.939,213.806C92.824,213.9 92.264,220.999 92.356,221.525C92.753,223.811 96.419,225.561 92.381,229.371C89.925,231.689 90.723,234.678 88.282,245.447C88.1,246.249 87.031,250.967 83.604,254.601C81.844,256.467 80.633,255.456 79.437,254.566C76.823,252.621 81.037,251.243 82.664,246.566C85.042,239.728 85.655,230.177 86.949,227.717C88.2,225.337 87.025,225.177 87.144,222.482C87.283,219.329 87.528,219.368 87.866,215.538C88.188,211.901 89.092,207.996 89.242,207.349C90.306,207.789 90.405,206.995 91.486,207.441C91.602,207.489 91.585,207.51 92.457,208.677C93.388,209.923 94.064,209.948 94.584,208.495C94.756,208.012 92.849,206.566 92.669,206.43C92.447,206.261 92.301,206.001 92.067,205.849C91.38,205.403 91.229,205.903 90.536,205.485C90.312,205.35 90.335,204.96 90.111,204.825Z" style="fill:rgb(15,18,18);"/>
                <path d="M453.08,160.549C452.846,158.877 451.548,149.588 452.139,139.474C452.606,131.472 452.39,131.491 452.439,123.499C452.498,113.925 452.23,111.914 453.373,111.324C454.805,110.584 454.876,110.877 456.501,110.877C470.67,110.878 470.722,110.823 471.654,111.284C472.802,111.852 472.401,113.971 472.409,125.5C472.428,153.531 472.13,153.856 473.743,157.394C475.967,162.276 478.481,164.736 483.491,165.558C487.455,166.209 493.132,164.09 493.256,164.024C495.387,162.888 498.034,159.338 499.193,156.387C500.452,153.181 500.688,146.111 500.681,145.497C500.562,134.481 500.568,134.505 500.551,123.5C500.535,112.614 500.123,111.484 502.555,110.927C502.884,110.852 518.302,110.882 518.484,110.891C520.293,110.983 520.632,110.839 521.259,112.554C521.496,113.201 521.174,150.561 521.412,180.499C521.414,180.731 521.431,182.767 520.377,183.2C519.963,183.369 517.73,183.378 517.499,183.379C511.148,183.405 504.837,183.512 504.501,183.483C500.209,183.114 504.071,175.957 501.483,175.91C500.45,175.891 500.545,176.168 499.793,176.879C490.105,186.032 477.904,184.741 477.474,184.663C474.242,184.073 465.011,182.769 458.837,175.226C455.818,171.538 453.655,164.312 453.08,160.549Z" style="fill:rgb(12,14,14);"/>
                <g transform="matrix(0.438169,0,0,0.438169,-256.577037,-378.387906)">
                    <path d="M1425.131,1202.436C1425.13,1202.301 1422.256,1174 1439.762,1149.642C1447.481,1138.902 1457.298,1127.682 1481.728,1119.047C1501.52,1112.051 1525.895,1112.691 1543.126,1119.97C1556.437,1125.594 1562.748,1128.158 1570.683,1135.944C1574.471,1139.661 1587.49,1151.78 1593.453,1172.73C1605.959,1216.676 1584.042,1247.373 1581.098,1252.301C1575.367,1261.893 1559.725,1272.221 1556.869,1273.636C1540.542,1281.73 1538.206,1281.58 1536.047,1282.059C1527.263,1284.006 1519.402,1290.14 1483.807,1281.546C1474.664,1279.338 1450.872,1267.157 1442.604,1254.921C1427.476,1232.532 1425.631,1214.616 1425.131,1202.436ZM1506.42,1154.219C1504.634,1154.437 1491.178,1153.939 1477.385,1173.226C1471.67,1181.217 1471.261,1189.506 1471.187,1191.011C1470.877,1197.297 1469.83,1205.811 1474.595,1218.412C1477.516,1226.134 1487.453,1237.097 1492.713,1239.085C1502.372,1242.738 1506.672,1243.919 1517.789,1242.89C1526.822,1242.054 1535.677,1235.771 1538.407,1232.156C1548.76,1218.447 1550.334,1214.467 1550.854,1197.916C1550.87,1197.41 1552.525,1192.792 1546.406,1177.816C1542.831,1169.065 1535.2,1162.35 1533.956,1161.255C1523.857,1152.366 1510.989,1154.021 1506.42,1154.219Z" style="fill:rgb(11,13,13);"/>
                </g>
                <g transform="matrix(0.438169,0,0,0.438169,-256.577037,-378.387906)">
                    <path d="M1887.449,1283.154C1864.077,1279.461 1855.702,1267.023 1855.363,1266.939C1851.445,1265.965 1851.691,1270.556 1851.715,1270.992C1853.284,1300.205 1851.815,1315.969 1852.304,1330.294C1852.33,1331.033 1852.571,1338.087 1851.115,1339.463C1849.192,1341.282 1847.118,1340.662 1823.67,1340.758C1811.576,1340.807 1806.128,1342.345 1806.149,1334.837C1806.373,1255.013 1806.414,1255.057 1806.395,1248.119C1806.08,1132.619 1806.272,1132.636 1806.204,1122.594C1806.176,1118.497 1806.2,1117.77 1810.134,1116.72C1810.419,1116.644 1816.292,1116.629 1816.828,1116.628C1846.06,1116.552 1846.074,1116.762 1846.864,1117.009C1852.444,1118.759 1849.49,1130.738 1849.768,1131.405C1849.848,1131.595 1852.936,1132.372 1853.503,1132.256C1854.762,1131.998 1854.162,1131.155 1859.79,1126.641C1872.542,1116.414 1893.002,1114.761 1894.562,1114.537C1906.605,1112.807 1924.084,1117.622 1926.166,1118.51C1950.543,1128.908 1955.825,1136.422 1965.004,1150.104C1975.438,1165.657 1978.168,1188.491 1977.879,1197.911C1977.637,1205.811 1978.652,1225.033 1962.622,1252.538C1958.333,1259.896 1949.184,1268.45 1944.713,1271.073C1935.676,1276.377 1930.98,1279.73 1919.559,1282.483C1902.805,1286.523 1900.687,1285.193 1887.449,1283.154ZM1894.424,1154.19C1887.874,1154.367 1866.111,1151.949 1854.354,1182.316C1852.237,1187.785 1851.049,1209.106 1856.106,1220.523C1866.703,1244.445 1891.8,1244.286 1898.785,1242.674C1912.159,1239.587 1914.781,1236.854 1918.229,1233.039C1944.032,1204.482 1926.066,1167.372 1912.588,1159.259C1904.746,1154.54 1902.631,1154.508 1894.424,1154.19Z" style="fill:rgb(12,14,14);"/>
                </g>
                <g transform="matrix(0.438169,0,0,0.438169,-256.577037,-378.387906)">
                    <path d="M782.961,1461.805C797.757,1460.343 797.976,1458.783 824.022,1430.666C826.304,1428.202 852.035,1400.425 852.567,1399.888C858.274,1394.11 859.768,1392.5 865.901,1397.883C883.95,1413.724 883.437,1414.246 893.089,1423.232C900.623,1430.246 901.783,1424.834 907.941,1416.607C935.924,1379.217 935.38,1378.884 937.977,1375.77C944.07,1368.466 947.614,1362.551 949.68,1360.03C954.608,1354.02 956.754,1355.718 961.489,1361.868C969.031,1371.664 968.113,1372.265 975.599,1382.086C985.146,1394.61 984.268,1395.172 992.501,1405.921C996.059,1410.566 998.523,1415.971 1002.23,1415.486C1004.44,1415.196 1013.041,1404.938 1018.756,1399.518C1025.122,1393.482 1027.034,1395.951 1031.989,1403.139C1038.672,1412.837 1044.29,1418.983 1049.599,1426.427C1050.638,1427.884 1054.145,1435.461 1058.137,1427.835C1072.503,1400.388 1072.846,1400.583 1074.084,1398.192C1084.184,1378.689 1084.338,1378.815 1094.645,1359.43C1098.911,1351.406 1102.836,1342.314 1107.037,1342.405C1111.784,1342.508 1121.841,1356.944 1125.348,1357.548C1128.467,1358.085 1129.44,1355.881 1131.684,1352.776C1136.792,1345.708 1145.968,1330.777 1149.862,1325.336C1158.906,1312.702 1165.439,1298.185 1170.958,1298.328C1176.14,1298.462 1175.733,1303.497 1175.686,1325.718C1175.525,1403.532 1176.35,1403.67 1173.727,1414.837C1173.133,1417.37 1169.776,1431.663 1158.846,1443.761C1148.4,1455.322 1116.836,1470.89 1102.164,1480.373C1101.48,1480.815 1095.702,1484.55 1093.494,1485.708C1080.797,1492.366 1081.273,1493.097 1068.763,1500.094C1049.116,1511.084 1049.635,1511.877 1030.025,1522.985C1014.987,1531.502 1014.876,1532.374 1010.669,1534.757C989.34,1546.835 989.678,1547.349 987.821,1548.39C939.613,1575.427 932.338,1585.183 906.1,1582.199C889.713,1580.335 861.714,1560.176 801.733,1525.684C792.397,1520.314 792.547,1520.149 783.219,1514.736C757.952,1500.073 757.922,1500.215 755.747,1498.91C725.729,1480.888 723.244,1476.21 678.061,1490.239C664.999,1494.295 665.562,1495.726 659.878,1497.384C655.086,1498.782 645.152,1492.793 657.23,1485.123C712.679,1449.908 719.803,1442.012 737.393,1443.838C758.714,1446.051 758.783,1461.158 782.961,1461.805ZM876.442,1478.544C871.292,1485.614 868.698,1490.291 865.134,1490.141C860.055,1489.927 848.311,1473.892 844.618,1473.749C841.572,1473.63 842.041,1474.926 826.06,1492.058C824.732,1493.483 816.265,1502.56 809.643,1510.036C805.564,1514.642 807.826,1515.763 813.071,1519.026C827.839,1528.212 828.234,1527.478 851.815,1541.921C857.456,1545.376 858.389,1541.861 872.572,1527.118C879.308,1520.116 930.043,1464.988 935.026,1459.573C947.753,1445.744 949.436,1446.039 949.454,1437.547C949.496,1418.119 949.376,1418.157 949.438,1398.749C949.48,1385.771 951.025,1382.176 947.265,1382.621C945.769,1382.797 946.236,1383.459 940.273,1391.765C931.987,1403.306 925.618,1411.306 920.157,1419.458C918.559,1421.844 918.535,1421.755 904.651,1440.345C888.475,1462.002 885.54,1466.951 876.442,1478.544ZM974.785,1542.685C977.869,1540.667 981.211,1538.724 981.778,1538.394C1011.077,1521.358 1010.965,1521.22 1013.56,1519.827C1021.257,1515.695 1016.139,1512.502 1011.419,1508.065C995.01,1492.636 994.918,1492.789 979.801,1478.066C956.943,1455.803 955.918,1454.974 952.689,1456.926C952.236,1457.199 952.295,1457.241 948.474,1461.648C948.421,1461.709 914.296,1498.402 899.151,1514.94C875.1,1541.204 874.713,1540.81 872.651,1543.117C867.315,1549.087 867.859,1551.301 874.778,1555.371C900.019,1570.219 900.882,1569.233 901.78,1569.478C919.024,1574.186 930.595,1569.097 949.2,1557.863C972.637,1543.713 972.75,1543.919 974.785,1542.685ZM1136.312,1366.521C1132.274,1372.678 1129.857,1377.467 1123.081,1371.307C1115.16,1364.107 1110.169,1356.67 1106.363,1361.612C1104.102,1364.548 1063.515,1443.566 1059.28,1449.117C1055.6,1453.943 1051.878,1447.998 1038.722,1430.597C1033.754,1424.026 1033.722,1424.09 1028.803,1417.488C1025.804,1413.464 1024.388,1409.022 1018.771,1415.388C1011.97,1423.096 1011.799,1422.879 1005.233,1429.332C998.105,1436.337 996.789,1430.494 990.068,1422.04C987.695,1419.055 973.379,1398.74 967.482,1389.876C966.945,1389.068 963.466,1383.156 963.132,1383.064C960.012,1382.204 960.069,1386.673 960.074,1387.077C960.191,1396.355 960.528,1396.314 960.512,1405.595C960.451,1442.61 960.75,1442.687 961.536,1444.135C963.621,1447.976 964.089,1447.652 1000.522,1482.419C1002.485,1484.292 1020.409,1501.396 1025.124,1505.768C1031.392,1511.579 1032.671,1507.523 1047.831,1499.361C1048.199,1499.164 1078.269,1481.156 1088.223,1475.352C1138.636,1445.956 1139.472,1445.253 1143.424,1441.932C1145.643,1440.068 1156.215,1432.309 1161.942,1414.763C1167.374,1398.118 1162.519,1355.322 1165.393,1330.363C1165.659,1328.055 1165.769,1327.686 1163.692,1326.743C1163.173,1326.507 1162.635,1326.034 1162.08,1326.167C1161.529,1326.299 1157.385,1334.758 1154.469,1339.078C1144.403,1353.994 1144.901,1354.289 1136.312,1366.521ZM875.991,1459.955C883.333,1450.208 883.128,1450.085 883.782,1449.252C891.621,1439.259 890.6,1438.607 890.383,1437.509C889.845,1434.79 863.184,1410.624 862.739,1410.378C859.409,1408.538 857.55,1411.137 849.671,1419.744C834.591,1436.218 834.62,1436.228 833.291,1437.643C814.382,1457.767 804.526,1472.399 785.222,1473.305C760.537,1474.464 752.52,1458.344 739.577,1456.032C723.049,1453.079 714.926,1463.074 705.208,1467.031C702.495,1468.136 702.824,1468.648 702.102,1469.041C701.939,1469.129 698.793,1469.117 698.65,1471.779C698.477,1474.99 700.052,1474.286 703.094,1473.319C703.856,1473.077 704.525,1472.583 705.293,1472.362C713.484,1470.004 722.798,1470.697 726.018,1471.226C738.196,1473.225 762.274,1489.518 771.47,1494.758C792.891,1506.965 792.823,1508.475 796.25,1507.344C798.609,1506.565 837.822,1462.087 839.961,1460.287C846.079,1455.139 849.027,1461.662 860.385,1472.023C864.695,1475.954 865.991,1473.317 875.991,1459.955Z" style="fill:rgb(14,16,17);"/>
                </g>
                <path d="M630.499,242.277C635.678,242.259 637.691,242.408 638.528,241.523C639.253,240.756 638.901,236.991 638.947,235.501C639.075,231.448 638.417,228.625 641.487,228.754C644.006,228.86 643.672,231.662 643.68,232.497C643.701,234.578 643.877,251.991 643.686,258.508C643.585,261.932 640.206,260.732 639.714,260.266C638.256,258.884 639.562,249.352 638.827,247.335C638.327,245.961 637.083,246.333 628.5,246.353C622.972,246.366 621.31,245.711 621.265,249.495C621.167,257.78 621.312,257.769 621.289,258.488C621.283,258.66 621.242,259.911 620.482,260.474C620.141,260.726 617.648,261.556 616.755,259.424C616.638,259.143 616.635,257.653 616.635,257.499C616.594,233.578 616.494,233.581 616.529,231.501C616.596,227.471 620.121,228.805 620.653,229.333C622.287,230.952 620.587,239.723 621.651,241.396C622.398,242.569 624.747,242.306 630.499,242.277Z" style="fill:rgb(29,33,32);"/>
                <path d="M502.507,233.482C501,233.014 501.048,232.863 499.478,232.692C491.143,231.782 487.648,238.324 487.12,239.314C485.42,242.496 486.134,247.374 486.535,248.489C490.45,259.371 501.682,257.524 503.792,255.864C506.1,254.047 504.359,247.639 505.338,245.4C505.647,244.694 509.371,242.561 509.458,247.501C509.601,255.636 509.571,255.781 509.428,256.486C508.865,259.257 502.352,262.561 493.441,260.758C482.272,258.499 475.263,242.661 486.487,232.486C495.176,224.61 508.148,229.799 509.061,232.646C509.333,233.496 507.861,236.443 505.296,234.91C503.938,234.098 503.934,234.161 502.507,233.482Z" style="fill:rgb(29,33,32);"/>
                <path d="M871.42,237.5C871.438,241.064 870.92,242.412 874.501,242.48C882.985,242.643 886.417,241.994 887.179,243.652C888.459,246.433 884.811,246.47 884.499,246.473C875.39,246.565 872.125,245.895 871.58,247.535C871.373,248.158 871.139,255.356 871.806,256.301C873.14,258.187 887.798,256.152 889.305,257.69C890.138,258.539 889.838,260.413 888.632,260.807C887.33,261.234 887.291,260.939 871.501,260.912C869.542,260.908 866.585,261.493 866.586,258.498C866.587,256.261 866.595,231.216 866.706,230.534C867.051,228.402 867.964,228.676 880.499,228.738C886.248,228.767 888.423,228.547 889.138,229.722C889.476,230.277 889.978,232.425 887.561,232.82C886.967,232.917 873.723,232.844 873.532,232.878C873.382,232.904 872.203,233.112 871.819,233.707C871.173,234.707 871.51,234.79 871.42,237.5Z" style="fill:rgb(30,34,33);"/>
                <g transform="matrix(0.438169,0,0,0.438169,-256.577037,-378.387906)">
                    <path d="M2077,1285.686C2066.539,1285.472 2066.57,1285.168 2056.367,1282.742C1985.38,1265.859 1990.473,1194.372 1991.913,1186.371C1994.435,1172.359 1993.821,1172.169 1999.299,1159.068C2000.254,1156.783 2004.314,1147.074 2018.031,1134.411C2026.2,1126.871 2041.081,1120.255 2047.4,1118.236C2075.115,1109.381 2101.121,1117.448 2108.602,1121.066C2127.391,1130.153 2134.462,1136.342 2146.403,1158.65C2155.94,1176.466 2157.061,1204.677 2155.636,1209.663C2154.341,1214.192 2147.997,1213.314 2143.184,1213.339C2050.727,1213.819 2050.727,1212.969 2042.698,1213.35C2042.293,1213.369 2038.795,1213.536 2038.523,1216.206C2038.139,1219.982 2045.824,1230.353 2048.464,1233.348C2049.034,1233.995 2057.541,1241.207 2067.954,1243.177C2101.842,1249.586 2115.183,1231.758 2118.317,1230.474C2121.826,1229.036 2121.511,1231.245 2133.862,1243.755C2139.082,1249.043 2141.874,1253.839 2142.045,1254.045C2146.978,1259.991 2144.441,1261.25 2138.294,1265.933C2136.35,1267.414 2125.582,1275.618 2111.275,1280.192C2094.964,1285.407 2087.378,1285.939 2077,1285.686ZM2090.587,1154.757C2088.452,1153.868 2076.957,1147.681 2060.648,1153.566C2045.515,1159.025 2034.715,1179.207 2037.503,1182.428C2039.288,1184.491 2042.178,1183.988 2049.611,1183.87C2104.149,1183.007 2104.153,1183.937 2108.886,1183.64C2113.628,1183.342 2111.016,1178.009 2110.792,1177.55C2107.87,1171.583 2103.067,1162.43 2090.587,1154.757Z" style="fill:rgb(12,14,14);"/>
                </g>
                <path d="M806.501,228.745C816.922,228.733 816.907,228.719 817.492,228.73C817.792,228.736 820.841,228.795 819.851,231.635C819.269,233.303 816.503,232.871 813.505,232.876C805.18,232.89 803.403,232.74 802.671,233.643C801.85,234.658 802.166,241.696 802.483,242.509C803.081,244.043 803.697,243.315 815.498,243.544C820.042,243.633 818.379,246.565 817.922,246.958C816.304,248.347 804.349,246.699 802.89,247.978C801.658,249.058 802.596,258.451 802.215,259.427C802.124,259.66 801.573,261.073 799.456,260.874C796.872,260.63 797.251,258.935 797.289,251.499C797.397,230.345 797.167,230.264 797.643,229.601C798.398,228.546 800.407,228.774 806.501,228.745Z" style="fill:rgb(31,35,34);"/>
                <path d="M659.16,247.692C658.102,245.93 652.888,237.482 652.341,236.596C649.189,231.489 647.609,230.365 649.183,229.057C649.213,229.032 652.167,227.642 654.159,230.724C657.328,235.629 657.08,235.763 660.147,240.721C660.759,241.709 662.12,245.482 663.875,242.879C665.695,240.18 665.502,240.08 667.272,237.36C671.398,231.017 671.673,228.884 674.491,228.766C674.864,228.75 676.323,228.6 676.539,229.476C676.835,230.675 676.625,230.688 675.978,231.73C675.145,233.072 666.682,246.703 665.71,248.602C664.745,250.489 665.407,257.26 665.233,258.482C664.705,262.183 660.855,260.931 660.404,259.534C659.514,256.781 661.543,253.234 659.16,247.692Z" style="fill:rgb(32,36,36);"/>
                <path d="M354.129,246.503C354.156,235.121 354.222,234.145 353.482,233.523C352.623,232.801 346.572,233.226 345.541,233.078C342.248,232.605 342.875,229.594 344.609,228.928C344.985,228.784 355.855,228.842 356.496,228.848C366.282,228.939 368.985,228.22 369.276,230.534C369.714,234.027 364.918,233.054 361.477,233.13C359.803,233.167 359.493,233.044 358.923,234.606C358.75,235.079 358.891,257.702 358.844,258.532C358.655,261.867 354.759,261.196 354.288,259.569C354.182,259.204 354.177,256.748 354.176,256.502C354.16,253.169 354.145,249.836 354.129,246.503Z" style="fill:rgb(29,34,32);"/>
                <path d="M843.499,260.92C843.43,260.915 840.762,261.185 840.209,259.62C839.913,258.781 839.994,255.642 839.994,255.499C839.992,232.392 839.763,232.388 840.046,230.4C840.386,228.015 843.689,228.413 844.423,229.55C845.208,230.766 844.649,246.846 844.821,254.484C844.861,256.276 844.865,256.586 846.583,257.052C847.011,257.168 858.952,257.03 859.568,257.128C862.153,257.54 862.425,261.092 858.494,261.052C853.89,261.006 853.897,260.963 853.497,260.959C848.493,260.913 848.518,260.965 843.499,260.92Z" style="fill:rgb(30,34,34);"/>
                <path d="M142.359,31.619C145.646,35.566 145.638,36.602 146.46,36.72C148.071,36.952 147.763,36.149 147.644,34.512C147.579,33.607 147.011,29.881 148.338,29.238C151.213,27.846 151.422,31.197 151.441,31.504C151.491,32.302 151.442,32.299 151.478,41.5C151.478,41.656 151.484,43.121 151.323,43.441C150.611,44.854 148.535,45.399 146.781,43.272C146.327,42.722 143.588,39.031 143.312,38.661C141.965,36.846 142.069,36.585 141.499,36.505C138.703,36.11 142.704,45.074 138.477,44.749C136.86,44.624 136.704,42.713 136.685,42.483C136.644,41.98 136.642,30.973 136.782,30.56C137.534,28.333 139.796,29.118 140.431,29.597C140.61,29.732 140.958,29.995 142.359,31.619Z" style="fill:rgb(18,21,21);"/>
                <path d="M831.105,239.497C831.074,258.964 831.032,258.984 830.781,259.632C830.23,261.056 826.384,261.887 826.186,258.526C826.105,257.159 826.073,230.801 826.148,230.427C826.604,228.143 830.394,228.053 830.995,230.36C831.176,231.055 831.13,232.402 831.105,239.497Z" style="fill:rgb(35,39,38);"/>
                <g transform="matrix(0.438169,0,0,0.438169,-256.577037,-378.387906)">
                    <path d="M1442.842,1399.008C1444.537,1397.093 1451.539,1387.537 1465.412,1385.368C1481.003,1382.93 1489.116,1387.848 1490.875,1388.914C1521.369,1407.398 1511.891,1443.129 1495.001,1453.471C1454.926,1478.01 1416.234,1430.91 1442.842,1399.008ZM1463.022,1396.293C1462.064,1396.744 1455.366,1399.891 1451.96,1403.572C1436.495,1420.292 1448.358,1451.578 1474.442,1450.351C1489.863,1449.626 1505.368,1432.46 1496.974,1410.301C1493.733,1401.748 1482.099,1391.005 1465.134,1395.676C1464.427,1395.871 1463.729,1396.099 1463.022,1396.293Z" style="fill:rgb(28,33,32);"/>
                </g>
                <g transform="matrix(0.438169,0,0,0.438169,-256.577037,-378.387906)">
                    <path d="M1525.633,1398.753C1525.595,1389.269 1524.316,1385.633 1533.831,1385.668C1557.748,1385.754 1557.837,1384.959 1563.738,1386.441C1574.332,1389.103 1577.125,1394.023 1578.309,1395.551C1591.853,1413.032 1578.352,1427.476 1577.199,1428.424C1561.123,1441.642 1545.934,1433.121 1538.089,1437.201C1535.129,1438.74 1537.429,1452.171 1536.307,1455.874C1535.166,1459.642 1527.399,1460.582 1525.538,1455.596C1525.187,1454.656 1525.596,1403.3 1525.633,1398.753ZM1561.224,1396.45C1557.411,1395.82 1557.468,1394.722 1542.879,1395.453C1535.317,1395.832 1536.55,1400.223 1536.546,1407.879C1536.539,1422.054 1535.322,1425.882 1542.925,1426.486C1550.144,1427.059 1571.602,1428.123 1572.612,1412.441C1573.397,1400.263 1561.431,1396.547 1561.224,1396.45Z" style="fill:rgb(29,34,32);"/>
                </g>
                <g transform="matrix(0.438169,0,0,0.438169,-256.577037,-378.387906)">
                    <path d="M1604.844,1396.712C1605.379,1396.177 1609.197,1392.355 1612.029,1390.561C1612.982,1389.957 1618.167,1386.672 1625.19,1385.495C1662.728,1379.203 1677.837,1413.981 1670.025,1435.001C1655.777,1473.335 1599.863,1464.354 1595.366,1428.428C1592.883,1408.589 1601.548,1400.36 1604.844,1396.712ZM1622.896,1396.613C1620.159,1397.956 1614.185,1400.246 1609.555,1408.106C1605.979,1414.175 1601.993,1431.138 1615.264,1442.892C1627.718,1453.922 1639.743,1450.245 1643.171,1448.533C1649.334,1445.457 1657.394,1440.848 1660.201,1428.603C1664.673,1409.098 1647.375,1388.967 1624.941,1395.914C1624.253,1396.127 1623.584,1396.4 1622.896,1396.613Z" style="fill:rgb(27,32,31);"/>
                </g>
                <g transform="matrix(0.438169,0,0,0.438169,-256.577037,-378.387906)">
                    <path d="M1816.392,1430.137L1812.479,1433.152C1810.502,1435.789 1813.574,1439.382 1820.726,1449.407C1824.997,1455.395 1824.453,1455.663 1824.457,1455.767C1824.643,1459.692 1823.037,1459.185 1819.125,1459C1812.449,1458.683 1812.052,1455.865 1804.878,1444.736C1800.636,1438.156 1799.976,1436.167 1791.705,1436.101C1782.494,1436.028 1778.498,1435.072 1778.276,1442.124C1777.988,1451.3 1779.613,1458.093 1773.542,1458.749C1767.508,1459.402 1767.163,1454.143 1767.119,1453.48C1767.005,1451.742 1767.391,1410.058 1767.003,1394.174C1766.878,1389.049 1766.616,1385.939 1773.484,1385.867C1802.219,1385.563 1805.077,1386.533 1807.67,1387.414C1812.056,1388.903 1820.56,1394.33 1823.526,1401.104C1824.031,1402.259 1826.906,1408.826 1825.019,1416.795C1823.159,1424.648 1819.495,1427.527 1816.392,1430.137ZM1800.934,1395.927C1780.133,1394.472 1779.021,1396.469 1778.437,1398.872C1777.92,1401.001 1778.061,1420.497 1778.214,1421.542C1778.735,1425.109 1779.862,1426.564 1794.011,1426.37C1812.524,1426.116 1815.293,1414.397 1813.979,1407.967C1811.916,1397.877 1803.619,1396.706 1800.934,1395.927Z" style="fill:rgb(32,38,37);"/>
                </g>
                <g transform="matrix(0.438169,0,0,0.438169,-256.577037,-378.387906)">
                    <path d="M1896.551,1430.775C1897.289,1432.229 1897.075,1432.296 1904.948,1449.348C1905.179,1449.848 1907.472,1454.815 1907.347,1455.791C1907.277,1456.341 1906.845,1459.727 1901.159,1458.912C1892.353,1457.649 1894.412,1442.7 1885.377,1441.487C1883.69,1441.261 1855.406,1441.196 1853.238,1441.631C1845.636,1443.153 1846.39,1456.924 1839.823,1458.698C1839.17,1458.874 1829.964,1461.359 1833.061,1453.639C1833.9,1451.547 1834.377,1451.804 1838.974,1439.571C1844.742,1424.22 1845.893,1424.767 1852.342,1409.68C1860.538,1390.507 1860.593,1385.365 1869.316,1385.481C1877.716,1385.592 1875.699,1390.692 1884.34,1406.115C1891.869,1419.557 1891.253,1419.828 1896.551,1430.775ZM1867.028,1431.545C1870.397,1431.559 1879.952,1431.83 1880.928,1430.969C1883.07,1429.08 1882.358,1428.629 1881.259,1425.959C1877.966,1417.957 1875.487,1415.359 1871.731,1403.24C1871.16,1401.398 1871.206,1401.26 1869.456,1400.439C1868.038,1399.773 1867.674,1399.588 1866.984,1400.981C1866.366,1402.228 1866.622,1402.314 1860.512,1417.137C1855.805,1428.556 1856.093,1429.058 1856.627,1429.99C1857.798,1432.033 1865.263,1431.527 1867.028,1431.545Z" style="fill:rgb(29,34,33);"/>
                </g>
                <g transform="matrix(0.438169,0,0,0.438169,-256.577037,-378.387906)">
                    <path d="M1946.918,1385.557C1949.775,1385.587 1964.876,1384.076 1973.294,1394.901C1975.594,1397.859 1981.374,1409.692 1976.364,1421.468C1967.609,1442.052 1937.369,1432.501 1932.611,1437.079C1930.736,1438.883 1932,1449.614 1931.619,1453.596C1930.823,1461.917 1922.074,1458.088 1921.916,1457.946C1919.971,1456.196 1920.088,1454.742 1920.229,1435.271C1920.561,1389.483 1919.647,1389.022 1921.526,1387.077C1923.119,1385.429 1924.862,1385.451 1946.918,1385.557ZM1958.152,1396.865C1956.579,1396.422 1949.554,1394.445 1937.813,1395.003C1932.262,1395.267 1931.559,1397.982 1931.5,1401.052C1931.065,1423.783 1932.119,1424.308 1933.855,1425.172C1936.035,1426.257 1947.538,1425.955 1951.412,1425.54C1953.266,1425.342 1969.492,1423.603 1966.716,1407.973C1965.24,1399.661 1958.218,1396.908 1958.152,1396.865Z" style="fill:rgb(30,35,34);"/>
                </g>
                <g transform="matrix(0.438169,0,0,0.438169,-256.577037,-378.387906)">
                    <path d="M2184.27,1385.548C2200.611,1385.441 2204.082,1385.301 2209.551,1386.676C2228.902,1391.542 2234.421,1415.925 2222.516,1427.879C2209.851,1440.596 2190.892,1434.211 2183.806,1436.576C2178.442,1438.367 2182.281,1451.366 2180.467,1456.174C2179.351,1459.131 2170.795,1461.372 2170.08,1453.569C2170.008,1452.785 2170.028,1392.305 2170.046,1391.878C2170.361,1384.303 2175.04,1385.544 2184.27,1385.548ZM2207.06,1396.546C2201.538,1395.413 2201.62,1395.161 2197.921,1394.99C2194.604,1394.837 2187.33,1394.942 2186.616,1395.006C2179.147,1395.671 2180.922,1401.551 2180.923,1414.728C2180.923,1423.323 2180.213,1426.067 2188.802,1426.582C2189.78,1426.64 2203.167,1427.801 2211.114,1422.962C2220.323,1417.355 2219.248,1403.21 2208.938,1397.328C2208.349,1396.992 2207.649,1396.882 2207.06,1396.546Z" style="fill:rgb(31,35,35);"/>
                </g>
                <g transform="matrix(0.438169,0,0,0.438169,-256.577037,-378.387906)">
                    <path d="M2264.145,1385.46C2273.076,1385.519 2287.099,1383.958 2295.895,1394.351C2303.903,1403.813 2302.698,1415.685 2299.258,1422.011C2293.083,1433.368 2288.862,1430.7 2288.446,1435.156C2288.314,1436.566 2288.266,1437.083 2297.132,1450.576C2297.291,1450.817 2301.618,1455.476 2300.076,1457.728C2297.866,1460.955 2292.023,1458.732 2291.37,1458.484C2287.691,1457.084 2280.182,1441.503 2275.44,1437.697C2274.449,1436.901 2272.328,1435.199 2259.626,1436.103C2251.254,1436.698 2255.098,1440.841 2254.09,1453.466C2253.78,1457.35 2251.755,1459.036 2248.131,1458.964C2241.97,1458.842 2242.831,1453.527 2242.831,1451.248C2242.832,1446.499 2242.837,1391.951 2242.839,1391.885C2242.972,1384.087 2246.857,1385.373 2264.145,1385.46ZM2282.244,1396.825C2280.496,1396.334 2272.518,1394.092 2259.616,1394.982C2254.186,1395.357 2254.276,1398.855 2254.227,1400.987C2253.704,1423.675 2254.25,1424.092 2255.797,1425.275C2257.883,1426.869 2291.702,1430.554 2290.389,1410.159C2289.686,1399.247 2283.739,1397.774 2282.244,1396.825Z" style="fill:rgb(33,37,37);"/>
                </g>
                <g transform="matrix(0.438169,0,0,0.438169,-256.577037,-378.387906)">
                    <path d="M2315.842,1409.837C2316.119,1409.189 2316.366,1408.529 2316.643,1407.881C2317.758,1405.272 2324.685,1389.077 2344.088,1385.415C2371.973,1380.152 2388.51,1401.089 2390.368,1416.913C2394.355,1450.881 2362.139,1468.68 2334.627,1456.38C2332.721,1455.527 2322.509,1450.962 2316.482,1437.622C2309.63,1422.455 2315.725,1410.181 2315.842,1409.837ZM2362.335,1396.327C2356.693,1394.791 2356.739,1394.332 2350.884,1394.616C2348.973,1394.708 2342.291,1395.843 2339,1397.904C2330.167,1403.437 2324.284,1409.512 2324.827,1423.904C2325.5,1441.703 2343.583,1454.804 2360.207,1449.63C2380.414,1443.341 2382.363,1420.491 2376.605,1409.847C2372.096,1401.51 2368.776,1399.648 2362.335,1396.327Z" style="fill:rgb(31,36,35);"/>
                </g>
                <g transform="matrix(0.438169,0,0,0.438169,-256.577037,-378.387906)">
                    <path d="M2684.117,1428.456C2681.771,1430.689 2681.721,1430.557 2679.226,1432.69C2675.778,1435.638 2677.024,1436.88 2686.553,1451.12C2686.79,1451.476 2689.132,1454.975 2689.177,1455.773C2689.434,1460.317 2680.797,1459.463 2678.131,1457.057C2677.173,1456.192 2677.374,1456.031 2668.968,1443.776C2664.039,1436.589 2663.38,1436.077 2652.122,1436.156C2651.431,1436.161 2644.948,1436.206 2643.68,1437.985C2641.967,1440.387 2643.179,1453.926 2642.451,1455.646C2640.336,1460.647 2632.621,1459.564 2631.641,1455.789C2631.185,1454.033 2631.683,1436.54 2631.419,1396.47C2631.401,1393.849 2630.634,1389.073 2633.426,1386.718C2634.58,1385.746 2634.739,1385.721 2656.683,1385.785C2661.802,1385.8 2679.18,1383.512 2688.086,1401.298C2694.84,1414.788 2685.472,1426.729 2684.117,1428.456ZM2668.055,1396.598C2666.621,1396.316 2660.462,1395.104 2649.824,1395.435C2643.852,1395.62 2642.742,1396.406 2642.699,1403.312C2642.57,1424.126 2643.177,1424.228 2644.082,1425.176C2645.57,1426.733 2658.979,1428.165 2668.491,1424.982C2669.849,1424.528 2679.474,1421.307 2678.575,1410.196C2677.722,1399.651 2669.486,1397.274 2668.055,1396.598Z" style="fill:rgb(31,35,34);"/>
                </g>
                <g transform="matrix(0.438169,0,0,0.438169,-256.577037,-378.387906)">
                    <path d="M923.998,997.308C931.676,1012.999 931.361,1013.107 936.499,1024.195C936.798,1024.84 940.705,1032.344 940.58,1033.612C940.519,1034.222 938.824,1035.819 938.169,1035.85C936.262,1035.94 919.541,1025.261 915.298,1025.02C912.998,1024.889 891.61,1036.083 890.232,1035.974C889.675,1035.93 888.025,1034.233 887.978,1033.592C887.952,1033.242 900.34,1004.403 904.932,995.297C905.151,994.863 905.212,994.918 907.772,989.93C912.583,980.554 911.759,978.443 915.169,979.33C916.749,979.74 916.383,980.283 923.998,997.308ZM913.684,1010.768C913.882,1006.077 913.855,1006.135 914.078,1001.454C914.267,997.47 914.67,997.553 914.632,997.213C914.381,994.993 911.038,996.902 910.769,997.055C910.238,997.358 908.068,1003.034 907.865,1003.566C902.84,1016.71 898.184,1022.577 899.701,1024.026C900.378,1024.671 900.871,1025.142 910.425,1019.391C914.373,1017.015 913.578,1012.921 913.684,1010.768Z" style="fill:rgb(22,26,25);"/>
                </g>
            </g>
            <g transform="matrix(2.19079,0,0,2.19079,2163.26139,992.849498)">
                <path d="M18.495,131.005C14.602,130.906 14.603,130.917 14.432,130.887C12.294,130.507 12.801,128.258 12.816,124.501C12.852,115.79 12.794,115.16 12.794,111.5C12.794,31.049 12.778,31.073 12.813,29.513C12.874,26.749 13.727,26.851 16.497,26.881C22.323,26.944 23.236,26.345 25.333,30.582C26.832,33.608 26.909,33.538 28.616,36.431C31.755,41.752 31.574,41.842 31.853,42.301C34.613,46.845 34.568,46.871 34.842,47.243C37.26,50.522 37.327,52.502 40.979,58.188C43.679,62.392 43.451,62.513 46.12,66.746C50.082,73.029 49.947,73.103 50.331,73.621C51.697,75.463 52.316,77.803 54.22,80.675C57.206,85.18 58.424,88.546 60.2,90.75C60.635,91.29 64.562,98.024 65.945,101.259C66.438,102.413 66.318,102.836 67.574,102.719C68.441,102.638 68.153,102.276 68.415,101.458C69.122,99.254 71.718,94.782 72.044,94.222C76.566,86.432 76.335,86.312 76.742,85.644C79.553,81.032 79.459,80.994 82.175,76.323C85.919,69.884 85.778,69.815 86.117,69.265C91.805,60.026 95.299,52.907 96.264,51.365C101.915,42.326 103.258,39.49 103.79,38.687C109.795,29.619 108.18,26.966 113.506,26.915C118.811,26.865 120.698,26.319 120.817,29.49C120.859,30.612 120.837,56.182 120.835,58.503C120.827,67.849 120.814,127.88 120.806,128.502C120.775,130.914 120.007,131.033 115.502,131.022C110.655,131.01 109.285,131.318 109.166,128.514C109.161,128.393 109.218,68.251 109.248,63.5C109.323,51.566 110.178,51.622 110.081,50.592C110.058,50.339 108.987,49.647 108.679,49.777C108.313,49.932 107.521,52.24 107.445,52.464C106.795,54.357 105.151,56.471 103.641,59.582C103.162,60.569 94.878,74.872 93.807,76.675C87.493,87.301 87.665,87.372 87.104,88.285C83.652,93.901 83.945,94.047 80.658,99.597C80.092,100.552 76.712,106.26 73.79,111.655C70.659,117.437 70.075,118.352 66.536,118.131C62.365,117.87 63.309,116.14 56.122,104.747C54.559,102.27 54.696,102.205 53.174,99.694C49.33,93.351 49.499,93.256 49.16,92.708C40.198,78.21 33.733,65.739 33.08,64.784C31.034,61.797 31.176,61.731 29.242,58.652C25.899,53.331 25.482,50.935 25.208,50.852C24.904,50.76 24.595,51.205 24.29,51.113C24.136,51.275 23.982,51.437 23.827,51.6C24.123,55.217 24.211,55.183 24.23,55.495C24.378,57.873 24.393,128.266 24.386,128.496C24.307,131.126 23.313,130.884 18.495,131.005Z" style="fill:rgb(13,15,14);"/>
                <g transform="matrix(0.456456,0,0,0.456456,-987.434427,-453.192471)">
                    <path d="M2582.856,1109.934C2582.024,1110.932 2597.439,1119.035 2598.719,1118.094C2600.997,1120.206 2603.014,1121.883 2603.397,1122.201C2602.529,1123.681 2609.216,1130.743 2610.107,1129.044C2613.7,1134.457 2613.298,1134.63 2616.243,1140.46C2618.682,1145.738 2618.931,1145.689 2620.48,1155.996C2621.154,1160.482 2620.765,1160.48 2621.573,1164.963C2621.872,1166.62 2621.997,1166.612 2621.999,1256.84C2621.999,1277.024 2622.782,1279.019 2617.989,1279.699C2616.589,1279.898 2603.396,1279.791 2602.353,1279.61C2598.633,1278.964 2598.702,1278.14 2598.649,1274.35C2598.452,1260.32 2599.709,1260.341 2599.353,1259.179C2599.264,1258.891 2598.532,1256.504 2596.135,1257.224C2595.175,1257.513 2594.242,1261.764 2582.478,1269.489C2575.604,1274.002 2557.676,1285.716 2521.613,1280.03C2518.196,1279.491 2504.806,1275.113 2497.64,1269.6C2488.462,1262.54 2483.748,1256.502 2479.352,1246.06C2476.276,1230.875 2474.355,1222.333 2484.318,1204.324C2489.476,1195 2498.248,1190.142 2499.755,1189.308C2516.114,1180.248 2524.039,1180.171 2563.075,1180.668C2565.536,1180.699 2592.17,1181.038 2593.841,1180.893C2597.512,1180.573 2597.219,1179.474 2597.263,1175.807C2597.296,1173.058 2596.3,1157.177 2592.474,1149.067C2581.33,1125.447 2556.152,1125.835 2541.231,1126.37C2519.147,1127.161 2501.451,1141.41 2499.418,1142.714C2495.841,1145.007 2492.903,1147.319 2490.484,1143.118C2483.531,1131.048 2483.395,1131.073 2483.333,1129.87C2483.057,1124.575 2489.962,1124.006 2502.467,1115.503C2507.573,1112.03 2523.151,1107.672 2532.504,1106.432C2544.247,1104.876 2552.93,1103.207 2574.182,1107.098C2578.723,1107.929 2578.711,1107.964 2582.856,1109.934ZM2597.214,1208.65L2596.958,1201.73C2596.911,1201.567 2596.561,1200.338 2595.968,1199.848C2595.043,1199.084 2594.912,1199.418 2585.023,1198.967C2524.168,1196.188 2521.166,1200.278 2511.362,1207.51C2506.417,1211.158 2495.969,1225.675 2504.413,1241.249C2513.63,1258.248 2524.128,1259.183 2534.567,1261.395C2544.857,1263.576 2566.357,1261.157 2576.481,1252.772C2599.487,1233.717 2597.256,1224.623 2597.214,1208.65Z" style="fill:rgb(13,15,15);"/>
                </g>
                <g transform="matrix(0.456456,0,0,0.456456,-987.434427,-453.192471)">
                    <path d="M2795.339,1109.978C2794.783,1110.362 2811.162,1118.078 2811.162,1118.078C2828.335,1129.439 2827.092,1130.857 2831.011,1135.839C2832.654,1137.928 2833.247,1137.43 2836.675,1143.077C2837.081,1143.746 2841.154,1150.458 2841.677,1151.485C2844.829,1157.679 2844.047,1157.944 2846.328,1164.539C2847.553,1168.083 2848.463,1169.335 2848.716,1171.219C2849.829,1179.511 2852.483,1187.734 2849.154,1212.899C2848.573,1217.29 2847.125,1221.312 2844.761,1228.056C2841.843,1236.381 2841.613,1236.243 2837.28,1243.939C2836.596,1245.853 2835.317,1246.86 2833.612,1248.779C2827.411,1257.851 2824.511,1261.011 2813.183,1268.371C2811.998,1269.141 2810.481,1270.127 2797.349,1276.205C2791.623,1278.855 2761.154,1288.379 2732.043,1273.822C2717.38,1266.489 2716.675,1264.375 2709.789,1259.12C2705.777,1256.058 2704.362,1248.797 2701.455,1250.805C2699.536,1252.13 2701.985,1254.703 2702.016,1263.428C2702.289,1339.826 2702.418,1340.395 2700.661,1341.686C2699.559,1342.496 2699.1,1342.832 2683.574,1342.429C2677.468,1342.271 2678.166,1339.98 2677.936,1331.325C2677.769,1325.018 2677.941,1325.054 2677.969,1252.46L2677.955,1136.35C2677.985,1115.155 2678.026,1114.176 2678.106,1112.25C2678.249,1111.559 2677.853,1110.828 2677.996,1110.138C2678.777,1106.378 2679.713,1106.679 2683.571,1106.549C2684.777,1106.509 2697.063,1106.096 2698.653,1106.752C2701.967,1108.12 2701.339,1112.675 2701.137,1121.011C2700.947,1128.833 2699.786,1133.157 2701.165,1134.065C2702.973,1135.254 2704.327,1133.43 2704.491,1133.209C2705.945,1131.249 2705.33,1130.762 2709.439,1127.087C2710.28,1126.335 2712.8,1124.081 2720.449,1118.279C2728.104,1112.473 2732.549,1111.352 2738.607,1108.409C2739.72,1107.868 2755.139,1104.55 2766.857,1104.75C2768.624,1104.78 2777.313,1104.928 2788.737,1107.845C2792.703,1108.858 2792.577,1109.086 2795.339,1109.978ZM2702.46,1193.313C2702.555,1196.228 2703.176,1215.231 2711.749,1228.57C2713.891,1231.903 2714.126,1231.684 2716.225,1235.064C2718.095,1238.074 2733.418,1255.616 2746.958,1257.81C2757.956,1259.592 2757.893,1260.167 2769.065,1259.731C2787.034,1259.028 2788.387,1255.675 2799.75,1248.159C2800.719,1247.519 2809.817,1240.415 2812.916,1234.985C2817.315,1227.278 2827.862,1218.475 2825.36,1182.399C2824.664,1172.369 2817.056,1155.7 2810.076,1147.777C2783.259,1117.332 2747.132,1124.601 2729.929,1136.84C2722.43,1142.175 2719.499,1144.764 2713.785,1153.597C2709.898,1159.605 2706.585,1168.124 2706.075,1169.437C2701.669,1180.765 2702.478,1191.559 2702.46,1193.313Z" style="fill:rgb(13,16,15);"/>
                </g>
            </g>
        </g>
    </g>
</svg>
